<svg xmlns="http://www.w3.org/2000/svg" version="1.1" xmlns:xlink="http://www.w3.org/1999/xlink" width="512" height="512" x="0" y="0" viewBox="0 0 512 512" style="enable-background:new 0 0 512 512" xml:space="preserve" class=""><g><path fill="#ffcbbc" d="M336 300h-40v-65h-80v65h-40c-4.295 0-8.532.245-12.706.706V425h185.412V300.706A115.673 115.673 0 0 0 336 300z" opacity="1" data-original="#ffcbbc" class=""></path><path fill="#ffbca7" d="M296 300v-65h-40v190h92.706V300.706A115.673 115.673 0 0 0 336 300z" opacity="1" data-original="#ffbca7"></path><path fill="#e2dff4" d="M61 415v82c0 8.284 6.716 15 15 15h84.889L256 463.5V405l-92.706-104.294C105.84 307.05 61 355.883 61 415z" opacity="1" data-original="#e2dff4" class=""></path><path fill="#f9f9f9" d="M348.706 300.706 160.889 512H436c8.284 0 15-6.716 15-15v-82c0-59.117-44.84-107.95-102.294-114.294z" opacity="1" data-original="#f9f9f9"></path><path fill="#e2dff4" d="M348.706 300.706 256 405v107h180c8.284 0 15-6.716 15-15v-82c0-59.117-44.84-107.95-102.294-114.294z" opacity="1" data-original="#e2dff4" class=""></path><path fill="#ffddce" d="M256 290c-49.706 0-90-40.294-90-90V90l180 10v100c0 49.706-40.294 90-90 90z" opacity="1" data-original="#ffddce" class=""></path><path fill="#ffcbbc" d="M256 290c49.706 0 90-40.294 90-90V100l-90-5z" opacity="1" data-original="#ffcbbc" class=""></path><path fill="#ffcbbc" d="M256 249.979c-11.084 0-22.168-4.219-30.606-12.657-5.858-5.858-5.858-15.355 0-21.213 5.857-5.857 15.355-5.858 21.213 0 5.18 5.18 13.607 5.18 18.787 0 5.858-5.857 15.356-5.857 21.213 0 5.858 5.858 5.858 15.355 0 21.213-8.439 8.438-19.523 12.657-30.607 12.657z" opacity="1" data-original="#ffcbbc" class=""></path><path fill="#ffbca7" d="M286.606 237.322c5.858-5.858 5.858-15.355 0-21.213-5.856-5.857-15.354-5.858-21.213 0a13.244 13.244 0 0 1-9.394 3.885v29.986c11.085-.001 22.169-4.22 30.607-12.658z" opacity="1" data-original="#ffbca7"></path><path fill="#a05f4b" d="M346 100H181c-30.376 0-55-24.624-55-55V15c0-8.284 6.716-15 15-15h150c30.376 0 55 24.624 55 55z" opacity="1" data-original="#a05f4b" class=""></path><path fill="#724435" d="M291 0h-35v100h90V55c0-30.376-24.624-55-55-55z" opacity="1" data-original="#724435"></path></g></svg>