<svg xmlns="http://www.w3.org/2000/svg" version="1.1" xmlns:xlink="http://www.w3.org/1999/xlink" width="512" height="512" x="0" y="0" viewBox="0 0 32 32" style="enable-background:new 0 0 512 512" xml:space="preserve" class=""><g><circle cx="16" cy="16" r="14" fill="#e6e7e8" data-name="Layer 1" opacity="1" data-original="#e6e7e8" class=""></circle><path d="M19.33 13.38v-1.607a3.33 3.33 0 1 0-6.66 0v1.607a5.636 5.636 0 1 0 6.66 0zm-5.123-1.607a1.793 1.793 0 0 1 3.586 0v.808a5.578 5.578 0 0 0-3.586 0zm2.3 6.041v2.157a.512.512 0 1 1-1.024 0v-2.157a1.281 1.281 0 1 1 1.024 0z" data-name="Layer 2" fill="#000000" opacity="1" data-original="#000000"></path></g></svg>