<svg xmlns="http://www.w3.org/2000/svg" version="1.1" xmlns:xlink="http://www.w3.org/1999/xlink" width="512" height="512" x="0" y="0" viewBox="0 0 59 39" style="enable-background:new 0 0 512 512" xml:space="preserve" class=""><g><g fill="none" fill-rule="nonzero"><path fill="#000000" d="M19.85 30.77A10.006 10.006 0 0 1 .49 32.1a1 1 0 0 1 .81-1.29l3.72-.53c.8-.11 1.2.11 1.4.5a4 4 0 1 0 5.14-5.46 4.867 4.867 0 0 0-4.9.96 1.037 1.037 0 0 1-.83.2L1.4 25.5a1.006 1.006 0 0 1-.76-1.2l2.78-12.52a1 1 0 0 1 .97-.78H18a1 1 0 0 1 1 1v4a1 1 0 0 1-1 1H8.41l-.49 2.21a10.012 10.012 0 0 1 11.93 11.56zM47 23v12.03a1 1 0 0 1-.43.82l-.86.6c-6.148 4.234-14.505 3.11-19.317-2.596-4.812-5.706-4.508-14.133.703-19.478 5.211-5.344 13.627-5.862 19.454-1.196a1.014 1.014 0 0 1 .12 1.48l-2.75 2.93a.973.973 0 0 1-1.31.12A8.5 8.5 0 1 0 41 32.25V28h-4a1 1 0 0 1-1-1v-4a1 1 0 0 1 1-1h9a1 1 0 0 1 1 1z" opacity="1" data-original="#26b99a" class=""></path><g fill="#ff5364"><path d="M58 16a1 1 0 0 1-1-1c-.008-7.176-5.824-12.992-13-13a1 1 0 0 1 0-2c8.28.01 14.99 6.72 15 15a1 1 0 0 1-1 1z" fill="#383838" opacity="1" data-original="#ff5364" class=""></path><path d="M52 16a1 1 0 0 1-1-1 7.008 7.008 0 0 0-7-7 1 1 0 0 1 0-2 9.011 9.011 0 0 1 9 9 1 1 0 0 1-1 1z" fill="#383838" opacity="1" data-original="#ff5364" class=""></path></g></g></g></svg>