<svg xmlns="http://www.w3.org/2000/svg" version="1.1" xmlns:xlink="http://www.w3.org/1999/xlink" width="512" height="512" x="0" y="0" viewBox="0 0 6.827 6.827" style="enable-background:new 0 0 512 512" xml:space="preserve" fill-rule="evenodd" class=""><g><g fill="#212121" fill-rule="nonzero"><path d="M3.193 5.917.98 5.123l-.035-.012V1.758l.07.024 2.212.753.036.013V5.942l-.071-.025zm-2.14-.88 2.104.754V2.624l-2.104-.717v3.13zM3.67 5.791l2.104-.755v-3.13l-2.105.718zm2.175-.668-2.211.794-.071.025V2.548l.036-.013 2.211-.753.07-.024V5.11l-.035.012zM1.212 1.539 3.45.909h.03l2.076.67v.1l-2.074.705h-.034L1.21 1.64l.002-.101zm2.252-.523-2.056.578 2.056.683L5.37 1.63z" fill="#212121" opacity="1" data-original="#212121" class=""></path></g></g></svg>