<svg xmlns="http://www.w3.org/2000/svg" version="1.1" xmlns:xlink="http://www.w3.org/1999/xlink" width="512" height="512" x="0" y="0" viewBox="0 0 64 64" style="enable-background:new 0 0 512 512" xml:space="preserve" class=""><g><ellipse cx="32" cy="28.143" rx="13.15" ry="3.727" fill="#000000" opacity="1" data-original="#000000"></ellipse><path d="M18.85 31.298v5.256c1.237 2.992 9.179 3.686 13.15 3.727 3.964-.037 11.924-.74 13.15-3.727v-5.256c-5.647 3.625-20.653 3.625-26.3 0zm19.332 4.276a24.73 24.73 0 0 0 2.908-.657 1.079 1.079 0 0 1 .614 2.068 23.26 23.26 0 0 1-3.35.732 1.081 1.081 0 0 1-.172-2.143zm-1.928 1.368a1.09 1.09 0 0 1-.99 1.163 46.463 46.463 0 0 1-3.264.119 1.077 1.077 0 0 1 0-2.155c1.045 0 2.09-.032 3.091-.118a1.071 1.071 0 0 1 1.163.99z" fill="#000000" opacity="1" data-original="#000000"></path><path d="M57.805 27.981c-.499-.607-.099-1.283-.172-2.035a9.303 9.303 0 0 0-11.126-9.09 1.095 1.095 0 0 1-1.281-.819C42.979 8.083 31.89 6.894 28.08 14.271a1.08 1.08 0 0 1-1.454.452 9.179 9.179 0 0 0-4.34-1.066 9.289 9.289 0 0 0-9.198 10.415 1.078 1.078 0 0 1-.937 1.206 9.28 9.28 0 0 0-1.928 17.975h6.473v-15.11c0-3.867 7.7-5.88 15.304-5.88s15.304 2.013 15.304 5.88v15.11h3.425c7.78.095 12.18-9.408 7.076-15.272z" fill="#000000" opacity="1" data-original="#000000"></path><path d="M32 42.435c-4.848-.085-9.49-.6-13.15-2.714v4.038c1.183 2.98 9.333 3.714 13.15 3.727 3.97-.031 11.918-.74 13.15-3.726v-4.04c-3.662 2.11-8.292 2.63-13.15 2.715z" fill="#000000" opacity="1" data-original="#000000"></path><path d="M32 49.64c-4.85-.076-9.492-.6-13.15-2.725v4.05c0 1.518 5.127 3.726 13.15 3.726s13.15-2.208 13.15-3.726v-4.05c-3.658 2.12-8.291 2.65-13.15 2.725z" fill="#000000" opacity="1" data-original="#000000"></path></g></svg>