<svg xmlns="http://www.w3.org/2000/svg" version="1.1" xmlns:xlink="http://www.w3.org/1999/xlink" width="512" height="512" x="0" y="0" viewBox="0 0 24 24" style="enable-background:new 0 0 512 512" xml:space="preserve" class=""><g><path d="M23 12c0 3.687-2.583 5-5 5-4.565 0-6.802-4.367-6.895-4.553C11.09 12.415 9.316 9 6 9c-2.48 0-3 1.632-3 3 0 2.48 1.632 3 3 3 1.46 0 2.614-.652 3.458-1.395a10.7 10.7 0 0 0 1.134 1.656C9.47 16.198 7.95 17 6 17c-2.417 0-5-1.313-5-5 0-2.417 1.313-5 5-5 4.565 0 6.802 4.367 6.895 4.553C12.91 11.585 14.684 15 18 15c1.368 0 3-.52 3-3 0-1.368-.52-3-3-3-1.46 0-2.614.652-3.458 1.395a10.702 10.702 0 0 0-1.134-1.656C14.53 7.802 16.05 7 18 7c3.687 0 5 2.583 5 5z" fill="#000000" opacity="1" data-original="#000000"></path></g></svg>