<svg xmlns="http://www.w3.org/2000/svg" version="1.1" xmlns:xlink="http://www.w3.org/1999/xlink" width="512" height="512" x="0" y="0" viewBox="0 0 50 50" style="enable-background:new 0 0 512 512" xml:space="preserve" class=""><g><path d="M36.46 36.05h-.22c-.41 0-.75-.34-.75-.75s.34-.75.75-.75h.22c.41 0 .75.34.75.75s-.34.75-.75.75z" fill="#000000" opacity="1" data-original="#000000" class=""></path><path d="M34.31 37.26a.76.76 0 0 1-.45-.15c-.52-.39-1-.84-1.4-1.34a.747.747 0 1 1 1.16-.94c.19.23.39.45.62.66.6-.55 1.28-.88 1.93-.93.41-.01.77.28.8.69s-.28.77-.69.8c-.43.03-.96.39-1.39.93-.13.18-.35.28-.58.28zm3.64-13.08c-.17 0-.34-.06-.48-.17a.757.757 0 0 1-.1-1.06c.27-.33.39-.93.31-1.62-.05-.41.25-.78.66-.83.91-.11 1.76-.09 2.59.04.41.07.69.45.62.86s-.45.69-.86.62c-.48-.08-.97-.11-1.49-.09-.03.79-.26 1.48-.68 1.98-.14.18-.36.27-.57.27z" fill="#000000" opacity="1" data-original="#000000" class=""></path><path d="M33.05 36.05c-.21 0-.41-.08-.56-.25-.26-.29-.51-.61-.74-.97-.22-.34-.13-.8.21-1.03.74-.5 1.17-1.19 1-1.64-.17-.44-.93-.69-1.84-.58a.746.746 0 0 1-.83-.66c-.13-1.07-.09-2.11.12-3.09.09-.4.47-.65.87-.58.89.17 1.67-.02 1.87-.45s-.17-1.15-.88-1.71a.743.743 0 0 1-.15-1.02c.13-.19.27-.35.43-.51.51-.59 1.14-1.14 1.86-1.61.34-.23.8-.13 1.03.21.51.76 1.18 1.17 1.65 1 .09-.03.18-.1.25-.19a.749.749 0 1 1 1.19.91c-.25.32-.56.55-.93.69-.95.34-2.04-.03-2.92-.97-.33.26-.64.54-.91.84.88.94 1.17 2.06.74 2.99-.42.92-1.48 1.44-2.75 1.38-.05.4-.06.82-.04 1.24 1.28.06 2.28.64 2.64 1.58.35.96-.03 2.05-.96 2.92.06.08.13.16.2.23.28.31.25.78-.05 1.06-.14.14-.32.21-.5.21zM39.56 39.04c-.59 0-1.18-.05-1.75-.16-.4-.08-.82-.5-.75-.9.17-.89-.02-1.68-.45-1.88a.37.37 0 0 0-.15-.04c-.4.05-.85-.25-.9-.66s.18-.79.59-.84c.13-.02.26-.02.4 0 .23-.01.46.06.71.19.9.41 1.41 1.45 1.37 2.75.41.05.82.06 1.24.05.05-1.29.63-2.29 1.59-2.64.94-.35 2.03.02 2.91.96.35-.27.65-.55.91-.84-.88-.94-1.17-2.06-.75-2.99.42-.92 1.43-1.42 2.75-1.38.05-.41.07-.83.05-1.25-1.27-.05-2.29-.64-2.64-1.58-.36-.95.02-2.04.96-2.92-.26-.32-.54-.63-.84-.91-.93.88-2.05 1.18-2.98.76-.95-.45-1.45-1.5-1.39-2.8a.734.734 0 0 1-.38-.74c.05-.41.43-.7.83-.66.17.02.32.05.49.08.2.04.39.15.5.32s.17.38.13.57c-.18.88.01 1.67.45 1.87.43.19 1.15-.18 1.7-.89.25-.33.72-.39 1.05-.13.83.64 1.54 1.41 2.11 2.27.22.34.13.8-.21 1.03-.75.51-1.17 1.2-1 1.64.17.45.94.69 1.82.58.42-.05.79.24.84.65.14 1.05.09 2.1-.12 3.1-.09.4-.47.66-.87.58-.91-.17-1.67.01-1.87.44s.17 1.15.88 1.71c.32.25.38.71.14 1.04-.47.62-1.03 1.19-1.68 1.69l-.08.06c-.17.12-.34.25-.51.36-.34.22-.8.13-1.03-.21-.51-.75-1.19-1.17-1.63-1-.46.17-.7.94-.59 1.84.02.2-.03.4-.16.55a.71.71 0 0 1-.5.28c-.41.02-.8.05-1.19.05z" fill="#000000" opacity="1" data-original="#000000" class=""></path><path d="M39.38 34.21c-2.44 0-4.43-1.99-4.43-4.43s1.99-4.43 4.43-4.43 4.43 1.99 4.43 4.43-1.99 4.43-4.43 4.43zm0-7.36c-1.62 0-2.93 1.31-2.93 2.93s1.31 2.93 2.93 2.93 2.93-1.31 2.93-2.93-1.32-2.93-2.93-2.93zM37.65 17.23h-.14c-.41 0-.75-.34-.75-.75s.34-.75.75-.75h.14c.41 0 .75.34.75.75s-.34.75-.75.75z" fill="#000000" opacity="1" data-original="#000000" class=""></path><path d="M36.34 17.97a.76.76 0 0 1-.45-.15c-.34-.25-.65-.55-.91-.87s-.21-.79.11-1.06.79-.21 1.06.11c.05.07.11.13.17.19.36-.28.76-.44 1.15-.47.42-.02.77.28.8.69s-.28.77-.69.8c-.15.01-.4.16-.64.46-.16.2-.38.3-.6.3zm2.22-8.01c-.17 0-.34-.06-.48-.17a.757.757 0 0 1-.1-1.06c.09-.11.17-.4.12-.78-.05-.41.25-.78.66-.83.59-.07 1.13-.06 1.67.03.41.06.69.45.62.85-.07.41-.46.69-.86.62a5.63 5.63 0 0 0-.59-.05c-.06.43-.21.82-.46 1.11-.15.18-.36.28-.58.28z" fill="#000000" opacity="1" data-original="#000000" class=""></path><path d="M35.56 17.23c-.21 0-.41-.08-.56-.25-.18-.2-.34-.41-.48-.64-.22-.34-.12-.8.21-1.02.43-.29.53-.59.5-.66s-.31-.23-.82-.17c-.4.06-.78-.25-.83-.66-.08-.69-.06-1.36.08-1.99.09-.4.48-.65.87-.58.5.09.8-.04.83-.11.04-.07-.05-.38-.45-.7a.751.751 0 0 1-.15-1.02c.09-.13.18-.24.29-.35.33-.37.73-.73 1.19-1.03.34-.23.8-.13 1.03.21.27.4.58.54.67.5.25-.33.74-.4 1.06-.14.33.25.4.71.15 1.04-.19.24-.43.42-.7.51-.62.23-1.32.04-1.9-.48-.05.04-.1.09-.15.14.48.62.61 1.33.33 1.94-.28.6-.9.97-1.68 1.01 0 .07-.01.14-.01.21.77.11 1.37.51 1.6 1.13.23.63.05 1.33-.47 1.91.22.31.18.73-.11.99-.14.14-.32.21-.5.21z" fill="#000000" opacity="1" data-original="#000000" class=""></path><path d="M39.55 19.06c-.38 0-.76-.03-1.12-.1 0 0-.1-.02-.11-.02a.74.74 0 0 1-.58-.87c.1-.51-.04-.8-.11-.83a.77.77 0 0 1-.85-.65c-.05-.41.23-.79.64-.84.11-.01.22-.01.33 0 .12 0 .33.04.53.14.58.27.94.89.99 1.67.07 0 .14.01.21.01.1-.78.51-1.37 1.14-1.6.62-.23 1.31-.05 1.9.47.05-.05.1-.09.15-.14-.48-.62-.61-1.33-.33-1.94.28-.6.9-.96 1.69-1.01 0-.07.01-.14.01-.21-.77-.1-1.37-.52-1.6-1.14s-.05-1.32.47-1.91c-.04-.05-.09-.1-.14-.15-.62.47-1.32.61-1.93.34-.66-.31-1.02-1-1.03-1.84a.737.737 0 0 1-.23-.63c.05-.41.42-.7.83-.66.09.01.17.03.26.04.2.04.41.16.52.32.11.17.19.38.15.58-.1.49.03.79.12.83.06.03.37-.05.69-.46.25-.33.72-.39 1.05-.13.54.41.99.9 1.36 1.46.22.34.13.8-.21 1.03-.43.29-.54.59-.51.66.03.08.3.24.81.17.42-.05.79.24.84.65.09.68.06 1.35-.08 2-.09.4-.47.65-.87.58-.51-.1-.8.04-.83.11s.05.38.45.7c.32.25.38.71.14 1.04a5.862 5.862 0 0 1-1.46 1.36c-.34.22-.8.13-1.03-.21-.29-.43-.59-.53-.66-.51-.08.03-.24.31-.18.82.02.2-.03.4-.16.55a.71.71 0 0 1-.5.28c-.26.02-.51.04-.76.04z" fill="#000000" opacity="1" data-original="#000000" class=""></path><path d="M39.44 15.9c-1.54 0-2.8-1.26-2.8-2.8s1.26-2.8 2.8-2.8 2.8 1.26 2.8 2.8-1.26 2.8-2.8 2.8zm0-4.11c-.72 0-1.3.58-1.3 1.3s.58 1.3 1.3 1.3 1.3-.58 1.3-1.3-.58-1.3-1.3-1.3zM7.25 49c-2.08 0-3.99-1.04-5.12-2.79-1.11-1.73-1.28-3.87-.43-5.73.41-.91.92-1.78 1.5-2.59 1.81-2.5 4.3-4.35 7.19-5.35.31-.11.62-.21.92-.3l.31-.1c2.28-.73 3.28-1.32 3.56-3.12.06-.41.44-.69.86-.63.41.06.69.45.63.86-.43 2.78-2.33 3.6-4.58 4.31l-.32.1c-.28.09-.57.18-.87.28a13.428 13.428 0 0 0-7.82 7.15c-.63 1.4-.51 3 .33 4.3.85 1.32 2.29 2.1 3.85 2.1l22.47-.21c1.57 0 3.01-.79 3.86-2.1.84-1.3.96-2.9.33-4.3a13.448 13.448 0 0 0-7.81-7.15c-.3-.11-.6-.2-.88-.29l-.32-.1c-2.2-.7-3.92-1.25-4.36-4.04-.06-.41.22-.79.63-.86.41-.06.79.22.86.63.29 1.88 1.24 2.18 3.32 2.84l.33.1c.3.09.61.19.93.3 2.88 1 5.37 2.85 7.18 5.35.58.81 1.09 1.68 1.5 2.59.84 1.86.68 4-.43 5.73a6.06 6.06 0 0 1-5.11 2.79z" fill="#000000" opacity="1" data-original="#000000" class=""></path><path d="M19.07 37.13c-1.28 0-2.57-.38-3.74-1.13l-3.9-2.51a.745.745 0 0 1-.22-1.04c.22-.35.69-.45 1.04-.22l3.9 2.51c1.86 1.2 4 1.2 5.86-.01l3.66-2.37c.35-.23.81-.13 1.04.22s.13.81-.22 1.04l-3.66 2.37c-1.18.76-2.47 1.14-3.76 1.14zM18.62 30.33c-4.62 0-8.51-3.05-9.13-7.21l-.08-.52c-.44-2.91-.47-3.14-.16-6.58.04-.41.41-.71.81-.68.41.04.72.4.68.81-.3 3.26-.27 3.42.15 6.22l.08.52c.52 3.46 4.02 6.09 7.94 5.93h.16c3.85-.15 7.01-2.79 7.5-6.29l.08-.57c.37-2.64.38-2.69.1-5.8-.04-.41.27-.78.68-.81.4-.04.78.27.81.68.3 3.28.28 3.45-.11 6.15l-.08.57c-.59 4.21-4.35 7.4-8.94 7.58h-.49z" fill="#000000" opacity="1" data-original="#000000" class=""></path><path d="M27.85 23.77c-.14 0-.27-.01-.41-.02-.39.08-.82-.18-.9-.59s.16-.8.57-.88c.24-.05.37-.04.5-.03 1.37.14 2.46-.84 2.61-2.33.07-.69-.13-1.36-.57-1.9s-1.06-.87-1.75-.94h-.12c-.09.01-.17 0-.2 0a.75.75 0 1 1 .1-1.5h.09c.12 0 .25 0 .29.01 1.08.11 2.06.64 2.75 1.48s1.01 1.91.9 3c-.22 2.18-1.85 3.7-3.86 3.7zM10.23 23.76c-.05 0-.1 0-.14-.01-2.18.12-4.09-1.49-4.31-3.67a4.087 4.087 0 0 1 3.66-4.48c.03 0 .21 0 .35-.01h.16c.41-.01.75.31.77.72s-.29.75-.69.78c-.03 0-.14.01-.25 0h-.22c-1.39.14-2.43 1.42-2.28 2.84.07.69.4 1.31.94 1.75s1.21.63 1.9.57c.22-.02.44.05.6.19.14.12.24.28.26.48.05.41-.23.79-.64.84h-.11z" fill="#000000" opacity="1" data-original="#000000" class=""></path><path d="M27.5 16.84a.67.67 0 0 1-.33-.08c-1.88-.91-3.19-2.8-3.32-4.6-.73.15-1.46.15-2.19.02.15.28.35.48.76.7.31.17.47.53.37.88-.1.34-.41.57-.78.53-2.15-.18-3.64-.59-5.33-1.52.01.15.02.28.04.36a.75.75 0 0 1-.89.88c-.68-.15-1.3-.44-1.89-.71-.3-.14-.59-.27-.87-.39-.48 1.52-1.6 2.83-2.53 3.72-.3.29-.77.28-1.06-.02s-.28-.77.02-1.06c.93-.89 2.07-2.25 2.27-3.7.03-.21.14-.39.31-.51s.39-.16.59-.12c.68.15 1.3.44 1.9.72.2.09.4.19.6.27-.01-.26-.02-.53-.05-.67-.06-.29.07-.6.32-.76.25-.17.58-.17.83-.01 1.43.93 2.55 1.45 3.91 1.75-.07-.17-.13-.33-.19-.51-.08-.22-.16-.45-.27-.71a.751.751 0 0 1 1-.98c1.27.58 2.48.61 3.7.12.26-.11.56-.06.78.13.21.19.3.48.23.75-.37 1.41.74 3.28 2.42 4.09.37.18.53.63.35 1-.16.28-.42.43-.7.43z" fill="#000000" opacity="1" data-original="#000000" class=""></path><path d="M7.92 17.69a.76.76 0 0 1-.72-.53c-.78-2.53.19-6.16.65-7.61.23-.71.48-1.51.95-2.22.75-1.12 2.03-1.99 3.81-2.58.6-.2 1.22-.35 1.83-.51.77-.2 1.5-.38 2.2-.65.96-.36 2.22-1.03 2.77-2.18.11-.23.33-.39.58-.42s.5.07.67.26c.5.6.8 1.35.87 2.11 1.47.01 2.93.38 4.18 1.15.57.35 1.08.77 1.58 1.17.67.54 1.29 1.05 2.01 1.36 1.03.45 2.26.46 3.29.04.32-.13.68-.03.88.24.21.27.2.65-.01.91l-1.94 2.5c-.44.56-.89 1.14-1.02 1.76-.08.37-.09.89-.11 1.43-.02 1.09-.05 2.33-.71 3.17-.25.33-.72.39-1.05.13a.748.748 0 0 1-.13-1.05c.35-.44.37-1.42.39-2.28.01-.62.03-1.21.14-1.72.21-.95.79-1.7 1.3-2.36l.72-.93c-.79.02-1.62-.15-2.36-.47-.91-.4-1.65-1-2.36-1.58-.48-.39-.93-.75-1.42-1.05a6.394 6.394 0 0 0-4.08-.88.757.757 0 0 1-.83-.87c.05-.28.03-.58-.03-.86-.83.9-1.93 1.46-2.82 1.8-.78.29-1.58.5-2.36.7-.58.15-1.17.3-1.73.48-1.46.48-2.48 1.14-3.03 1.98-.33.57-.54 1.2-.75 1.87-.86 2.73-1.11 5.24-.65 6.72a.75.75 0 0 1-.71.97z" fill="#000000" opacity="1" data-original="#000000" class=""></path></g></svg>