<svg xmlns="http://www.w3.org/2000/svg" version="1.1" xmlns:xlink="http://www.w3.org/1999/xlink" width="512" height="512" x="0" y="0" viewBox="0 0 511.969 511.969" style="enable-background:new 0 0 512 512" xml:space="preserve" class=""><g><path d="M221.505 265.971h33.766l-17.836-28.803-32.791 52.022h-14.911l39.881-62.413c3.005-4.304 8.93-5.358 13.234-2.353a9.534 9.534 0 0 1 2.275 2.242l39.991 62.524h-14.911l-7.023-11.632h-34.164l-7.444-11.587m154.936 11.588v-54.216h-12.673v59.555a6.114 6.114 0 0 0 1.883 4.431 6.408 6.408 0 0 0 4.609 1.928h57.605l7.511-11.632h-59.001m-209.463-9.748c12.298 0 22.267-9.969 22.267-22.267s-9.969-22.267-22.267-22.267h-55.39v65.848h12.651v-54.193h41.963c5.886 0 10.657 4.771 10.657 10.657s-4.771 10.657-10.657 10.657H130.51l37.798 32.879h18.367l-25.391-21.314h5.695M33.778 289.191h38.263c18.177-.472 32.53-15.59 32.059-33.767-.454-17.514-14.545-31.604-32.059-32.059H33.778C15.601 222.893.483 237.246.011 255.424c-.472 18.177 13.881 33.295 32.059 33.767.569.014 1.139.014 1.708 0m37.399-11.588H34.62c-11.765-.379-20.995-10.225-20.616-21.99.362-11.232 9.383-20.254 20.616-20.616h36.557c11.765-.38 21.611 8.851 21.99 20.616.38 11.765-8.851 21.611-20.616 21.99-.458.015-.916.015-1.374 0m240.37 11.588h39.061l7.4-11.588h-45.597c-11.765.38-21.611-8.85-21.99-20.616-.38-11.765 8.85-21.611 20.616-21.99.458-.015.916-.015 1.374 0h37.111l7.489-11.632h-45.464c-18.177-.472-33.295 13.881-33.767 32.059-.472 18.177 13.881 33.295 32.059 33.767.569.014 1.139.014 1.708 0m154.803-11.588a21.313 21.313 0 0 1-20.516-15.509h54.105l7.444-11.61h-61.549a21.291 21.291 0 0 1 20.516-15.509h37.133l7.422-11.632h-45.42c-18.177.472-32.53 15.59-32.059 33.767.454 17.514 14.545 31.604 32.059 32.059h39.061l7.422-11.587h-45.641" fill="#000000" opacity="1" data-original="#000000"></path></g></svg>