<svg xmlns="http://www.w3.org/2000/svg" version="1.1" xmlns:xlink="http://www.w3.org/1999/xlink" width="512" height="512" x="0" y="0" viewBox="0 0 512 512" style="enable-background:new 0 0 512 512" xml:space="preserve" class="hovered-paths"><g><clipPath id="a"><circle cx="256.246" cy="253.546" r="232.999" fill="#000000" opacity="1" data-original="#000000"></circle></clipPath><path d="M256.246 507.502c-135.254 0-245.291-110.037-245.291-245.29 0-135.254 110.037-245.29 245.291-245.29 135.253 0 245.29 110.036 245.29 245.29 0 135.253-110.037 245.29-245.29 245.29z" opacity="1" fill="#00000020" data-original="#00000020"></path><path fill="#ffffff" fill-rule="evenodd" d="M256.246 499.502c-135.254 0-245.291-110.037-245.291-245.29 0-135.254 110.037-245.29 245.291-245.29 135.253 0 245.29 110.036 245.29 245.29 0 135.253-110.037 245.29-245.29 245.29z" clip-rule="evenodd" opacity="1" data-original="#ffffff" class="hovered-path"></path><g clip-path="url(#a)"><path fill="#00247d" d="M-217.341 20.758h932.286v466.141h-932.286z" opacity="1" data-original="#00247d"></path><path fill="#ffffff" d="m706.693 535.003-944.59-472.295 41.671-83.344 944.591 472.295z" opacity="1" data-original="#ffffff" class="hovered-path"></path><path fill="#cf142b" d="M241.148 284.819-231.15 48.669l13.89-27.78 472.298 236.148zM727.724 493.477 255.429 257.329l13.891-27.783 472.295 236.148z" opacity="1" data-original="#cf142b"></path><path fill="#ffffff" d="m748.475 56.217-944.59 472.296-41.673-83.346 944.59-472.295z" opacity="1" data-original="#ffffff" class="hovered-path"></path><path fill="#cf142b" d="m269.053 278.644-472.295 236.148-13.891-27.782 472.295-236.148zM727.816 14.377 255.523 250.523 241.63 222.74 713.924-13.406z" opacity="1" data-original="#cf142b"></path><path fill="#ffffff" d="M171.111 20.758h155.38v466.141h-155.38z" opacity="1" data-original="#ffffff" class="hovered-path"></path><path fill="#ffffff" d="M-217.341 176.139h932.286v155.38h-932.286z" opacity="1" data-original="#ffffff" class="hovered-path"></path><g fill="#cf142b"><path d="M202.187 20.758h93.23v466.141h-93.23z" fill="#cf142b" opacity="1" data-original="#cf142b"></path><path d="M-217.341 207.213h932.286v93.23h-932.286z" fill="#cf142b" opacity="1" data-original="#cf142b"></path></g></g><path fill="#fff" fill-rule="evenodd" d="M256.246 37.382c-119.383 0-216.163 96.78-216.163 216.164 0 5.198.195 10.352.556 15.458 42.158 53.583 122.197 89.762 214.014 89.762 94.405 0 176.355-38.246 217.484-94.332.179-3.607.272-7.236.272-10.888 0-119.383-96.78-216.164-216.163-216.164z" clip-rule="evenodd" opacity=".2"></path></g></svg>